<svg width="38" height="38" viewBox="0 0 38 38" fill="none" xmlns="http://www.w3.org/2000/svg">
<path d="M30.9718 37.0455H6.04529C4.44067 37.0418 2.90306 36.4017 1.76976 35.2657C0.636454 34.1297 -4.42101e-06 32.5906 0 30.986V6.05951C0 4.45243 0.638411 2.91117 1.77479 1.77479C2.91117 0.638411 4.45243 0 6.05951 0H30.986C32.5931 0 34.1344 0.638411 35.2707 1.77479C36.4071 2.91117 37.0455 4.45243 37.0455 6.05951V30.986C37.0455 31.783 36.8883 32.5721 36.5829 33.3082C36.2775 34.0443 35.8299 34.7129 35.2657 35.2758C34.7015 35.8386 34.0319 36.2847 33.295 36.5884C32.5582 36.892 31.7687 37.0474 30.9718 37.0455ZM6.04529 1.78656C4.91354 1.78656 3.82815 2.23615 3.02788 3.03641C2.22761 3.83668 1.77803 4.92207 1.77803 6.05382V30.9803C1.77803 32.1121 2.22761 33.1975 3.02788 33.9977C3.82815 34.798 4.91354 35.2476 6.04529 35.2476H30.9718C32.1035 35.2476 33.1889 34.798 33.9892 33.9977C34.7895 33.1975 35.2391 32.1121 35.2391 30.9803V6.05951C35.2391 4.92777 34.7895 3.84237 33.9892 3.0421C33.1889 2.24184 32.1035 1.79225 30.9718 1.79225L6.04529 1.78656Z" fill="white"/>
<path d="M23.2171 19.5528C23.2171 21.3223 22.8169 22.6584 22.0166 23.5612C21.2162 24.464 20.0347 24.9153 18.4719 24.9153C16.9148 24.9153 15.7475 24.4658 14.9699 23.5669C14.1923 22.6679 13.8016 21.3299 13.7978 19.5528V8.05396H9.24609V20.2868C9.24609 23.2094 10.0133 25.3904 11.5476 26.8299C13.0819 28.2694 15.4166 28.991 18.5516 28.9948C21.6392 28.9948 23.9482 28.2732 25.4788 26.8299C27.0093 25.3866 27.7764 23.2056 27.7802 20.2868V12.2643L23.2285 14.4577L23.2171 19.5528ZM23.2171 8.05396V13.5047L27.7689 11.3141V8.05396H23.2171Z" fill="white"/>
</svg>
